<svg viewBox="0 0 300 200" xmlns="http://www.w3.org/2000/svg" xmlns:svg="http://www.w3.org/2000/svg" version="1.1" xml:space="preserve">
  <path d="m279.31 89.74c-.57 0-1.14.07-1.68.19l-74.07 14.39-47.11-80.02c-1.35-2.29-3.81-3.69-6.47-3.69-.01 0-.02 0-.03 0-2.67.01-5.13 1.44-6.47 3.76l-46.07 80.01-75.1-14.45c-2.43-.55-5.09.13-6.98 2.03-1.27 1.28-1.98 2.9-2.14 4.57-.13 1.25.07 2.48.53 3.59.17 .4.38 .8.62 1.18.33 .52.73 .99 1.18 1.42l74.97 74.49c1.4 1.4 3.3 2.18 5.28 2.18l109.64 0c1.99 0 3.9-.79 5.31-2.2l73.9-73.9c1.4-1.4 2.19-3.31 2.19-5.3l0-.75c0-4.14-3.35-7.5-7.5-7.5zm-129.25-46.73 37.88 64.34-37.35 7.26-37.6-7.23 37.07-64.37zm.53 89.36 35.37 32.02-70.73 0 35.36-32.02zm-107.21-23.11 91.04 17.51-38.41 34.79-52.63-52.3zm161.78 52.28-38.42-34.79 90.85-17.64-52.43 52.43z" />
</svg>
