<svg xmlns="http://www.w3.org/2000/svg" width="256" height="256" viewBox="0 0 256 256" xml:space="preserve">
  <g style="stroke:none;stroke-width:0;stroke-dasharray:none;stroke-linecap:butt;stroke-linejoin:miter;stroke-miterlimit:10;fill:none;fill-rule:nonzero;opacity:1;">
    <path d="M128 139.551c-6.369 0-11.551-5.182-11.551-11.551S121.631 116.449 128 116.449 139.551 121.631 139.551 128 134.369 139.551 128 139.551m-33.449 0C88.182 139.551 83 134.369 83 128s5.182-11.551 11.551-11.551c6.37 0 11.551 5.182 11.551 11.551s-5.182 11.551-11.551 11.551m66.898 0c-6.369 0-11.551-5.182-11.551-11.551S155.08 116.449 161.449 116.449 173 121.631 173 128s-5.182 11.551-11.551 11.551" style="stroke:none;stroke-width:1;stroke-dasharray:none;stroke-linecap:butt;stroke-linejoin:miter;stroke-miterlimit:10;fill:#f68536;fill-rule:nonzero;opacity:1 "/>
  </g>
</svg>
