<svg xmlns="http://www.w3.org/2000/svg" width="256" height="256" viewBox="0 0 256 256" xml:space="preserve">
  <g style="stroke:none;stroke-width:0;stroke-dasharray:none;stroke-linecap:butt;stroke-linejoin:miter;stroke-miterlimit:10;fill:none;fill-rule:nonzero;opacity:1;">
    <path d="M116.449 172c0 6.369 5.182 11.551 11.551 11.551S139.551 178.369 139.551 172 134.369 160.449 128 160.449 116.449 165.631 116.449 172m0 33.449C116.449 211.818 121.631 217 128 217s11.551-5.182 11.551-11.551c0-6.37-5.182-11.551-11.551-11.551s-11.551 5.182-11.551 11.551m0-66.898c0 6.369 5.182 11.551 11.551 11.551S139.551 144.92 139.551 138.551 134.369 127 128 127s-11.551 5.182-11.551 11.551" style="stroke:none;stroke-width:1;stroke-dasharray:none;stroke-linecap:butt;stroke-linejoin:miter;stroke-miterlimit:10;fill:#f68536;fill-rule:nonzero;opacity:1 "/>
  </g>
</svg>
