<svg width="1200" height="675" viewBox="0 0 1200 675" fill="none" xmlns="http://www.w3.org/2000/svg">
    <path fill-rule="evenodd" clip-rule="evenodd"
        d="M421.107 415.443L421.107 272.197L184.429 219.816L184.429 464.445L421.107 415.443ZM428.185 429.406C432.861 428.437 436.214 424.319 436.214 419.543L436.214 268.154C436.214 263.43 432.931 259.341 428.319 258.32L181.569 203.711C175.282 202.319 169.321 207.104 169.321 213.544L169.321 470.63C169.321 477.013 175.184 481.786 181.435 480.492L428.185 429.406Z"
        fill="#D53F8C" />
    <path
        d="M124 264.457C124 259.681 127.353 255.562 132.03 254.594L378.78 203.508C385.03 202.214 390.893 206.987 390.893 213.37V470.456C390.893 476.895 384.933 481.681 378.645 480.289L131.895 425.68C127.283 424.659 124 420.57 124 415.846V264.457Z"
        fill="#F2E142" />
    <path d="M184.429 216.255L184.429 468.02L169.321 468.02L169.321 216.255L184.429 216.255Z"
        fill="#D53F8C" />
    <path
        d="M512.494 391.867H527.524V329.96C527.524 316.712 537.97 307.031 552.236 307.031C556.248 307.031 560.388 307.795 561.407 308.05V292.764C559.688 292.637 555.739 292.51 553.51 292.51C541.791 292.51 531.601 299.133 528.034 308.814H527.015V294.038H512.494V391.867Z"
        fill="white" />
    <path
        d="M608.64 393.905C628.511 393.905 643.032 383.969 647.618 369.193L633.097 365.117C629.275 375.307 620.423 380.403 608.64 380.403C590.998 380.403 578.834 369.002 578.133 348.048H649.147V341.679C649.147 305.248 627.492 292.764 607.112 292.764C580.617 292.764 563.039 313.655 563.039 343.717C563.039 373.779 580.362 393.905 608.64 393.905ZM578.133 335.055C579.152 319.833 589.915 306.267 607.112 306.267C623.416 306.267 633.861 318.495 633.861 335.055H578.133Z"
        fill="white" />
    <path
        d="M743.382 294.038H727.078L700.073 371.995H699.054L672.05 294.038H655.746L691.921 391.867H707.207L743.382 294.038Z"
        fill="white" />
    <path
        d="M792.112 393.905C811.983 393.905 826.504 383.969 831.09 369.193L816.569 365.117C812.747 375.307 803.894 380.403 792.112 380.403C774.47 380.403 762.305 369.002 761.605 348.048H832.618V341.679C832.618 305.248 810.964 292.764 790.583 292.764C764.089 292.764 746.51 313.655 746.51 343.717C746.51 373.779 763.834 393.905 792.112 393.905ZM761.605 335.055C762.624 319.833 773.387 306.267 790.583 306.267C806.888 306.267 817.333 318.495 817.333 335.055H761.605Z"
        fill="white" />
    <path
        d="M875.648 394.16C892.716 394.16 901.633 384.988 904.69 378.619H905.454V391.867H920.485V327.412C920.485 296.331 896.793 292.764 884.309 292.764C869.534 292.764 852.72 297.86 845.077 315.693L859.343 320.788C862.655 313.655 870.489 306.012 884.819 306.012C898.64 306.012 905.454 313.336 905.454 325.883V326.393C905.454 333.654 898.066 333.017 880.233 335.31C862.082 337.666 842.274 341.679 842.274 364.098C842.274 383.205 857.05 394.16 875.648 394.16ZM877.94 380.657C865.967 380.657 857.305 375.307 857.305 364.862C857.305 353.398 867.75 349.831 879.469 348.302C885.838 347.538 902.907 345.755 905.454 342.698V356.455C905.454 368.683 895.774 380.657 877.94 380.657Z"
        fill="white" />
    <path d="M954.327 261.429H939.297V391.867H954.327V261.429Z" fill="white" />
    <path
        d="M1006.61 321.857V365.08C1006.61 369.172 1004.99 371.48 1001.32 371.48H1000.21V377.25H1001.43C1008.95 377.25 1012.62 372.529 1012.62 365.08V321.857H1006.61ZM1009.56 315.143C1011.9 315.143 1013.84 313.254 1013.84 310.946C1013.84 308.638 1011.9 306.75 1009.56 306.75C1007.22 306.75 1005.29 308.638 1005.29 310.946C1005.29 313.254 1007.22 315.143 1009.56 315.143Z"
        fill="white" />
    <path
        d="M1049.85 330.879C1047.97 325.162 1043.75 321.333 1036.01 321.333C1027.77 321.333 1021.67 326.158 1021.67 332.978C1021.67 338.538 1024.87 342.262 1032.05 343.993L1038.56 345.567C1042.5 346.511 1044.36 348.452 1044.36 351.232C1044.36 354.694 1040.79 357.527 1035.2 357.527C1030.29 357.527 1027.21 355.35 1026.15 351.022L1020.45 352.491C1021.85 359.336 1027.32 362.982 1035.3 362.982C1044.38 362.982 1050.56 357.868 1050.56 350.917C1050.56 345.305 1047.15 341.764 1040.18 340.007L1034.39 338.538C1029.76 337.358 1027.67 335.758 1027.67 332.663C1027.67 329.201 1031.23 326.683 1036.01 326.683C1041.25 326.683 1043.41 329.673 1044.46 332.453L1049.85 330.879Z"
        fill="white" />
    <path fill-rule="evenodd" clip-rule="evenodd"
        d="M1065.67 296.679H985.098C982.317 296.679 980.063 298.933 980.063 301.714V382.286C980.063 385.067 982.317 387.321 985.098 387.321H1065.67C1068.45 387.321 1070.7 385.067 1070.7 382.286V301.714C1070.7 298.933 1068.45 296.679 1065.67 296.679ZM985.098 291.643C979.536 291.643 975.027 296.152 975.027 301.714V382.286C975.027 387.848 979.536 392.357 985.098 392.357H1065.67C1071.23 392.357 1075.74 387.848 1075.74 382.286V301.714C1075.74 296.152 1071.23 291.643 1065.67 291.643H985.098Z"
        fill="white" />
</svg>
