<svg xmlns="http://www.w3.org/2000/svg" width="1200" height="630" viewBox="0 0 1200 630" font-family="system-ui,-apple-system,Segoe UI,sans-serif">
  <defs>
    <linearGradient id="bg" x1="0" y1="0" x2="1" y2="1">
      <stop offset="0%" stop-color="#0b1426"/>
      <stop offset="100%" stop-color="#1a2a4a"/>
    </linearGradient>
    <linearGradient id="accent" x1="0" y1="0" x2="1" y2="0">
      <stop offset="0%" stop-color="#00d4ff"/>
      <stop offset="100%" stop-color="#e60073"/>
    </linearGradient>
    <radialGradient id="glow" cx="0.5" cy="0.5" r="0.5">
      <stop offset="0%" stop-color="#f08705" stop-opacity="0.4"/>
      <stop offset="100%" stop-color="#f08705" stop-opacity="0"/>
    </radialGradient>
    <marker id="arrow" viewBox="0 0 10 10" refX="9" refY="5" markerWidth="6" markerHeight="6" orient="auto-start-reverse">
      <path d="M0,0 L10,5 L0,10 z" fill="#a9b1d6"/>
    </marker>
  </defs>

  <rect width="1200" height="630" fill="url(#bg)"/>
  <circle cx="970" cy="315" r="240" fill="url(#glow)"/>

  <!-- brand -->
  <g transform="translate(80,55)">
    <g transform="scale(0.13)" fill="#ffffff">
      <path d="m329.31,89.74c-0.57,0 -1.14,0.07 -1.68,0.19l-74.07,14.39l-47.11,-80.02c-1.35,-2.29 -3.81,-3.69 -6.47,-3.69c-0.01,0 -0.02,0 -0.03,0c-2.67,0.01 -5.13,1.44 -6.47,3.76l-46.07,80.01l-75.1,-14.45c-2.43,-0.55 -5.09,0.13 -6.98,2.03c-1.27,1.28 -1.98,2.9 -2.14,4.57c-0.13,1.25 0.07,2.48 0.53,3.59c0.17,0.4 0.38,0.8 0.62,1.18c0.33,0.52 0.73,0.99 1.18,1.42l74.97,74.49c1.4,1.4 3.3,2.18 5.28,2.18l109.64,0c1.99,0 3.9,-0.79 5.31,-2.2l73.9,-73.9c1.4,-1.4 2.19,-3.31 2.19,-5.3l0,-0.75c0,-4.14 -3.35,-7.5 -7.5,-7.5zm-129.25,-46.73l37.88,64.34l-37.35,7.26l-37.6,-7.23l37.07,-64.37zm0.53,89.36l35.37,32.02l-70.73,0l35.36,-32.02zm-107.21,-23.11l91.04,17.51l-38.41,34.79l-52.63,-52.3zm161.78,52.28l-38.42,-34.79l90.85,-17.64l-52.43,52.43z"/>
      <path d="m90.23 158.07-80.02-47.1c-2.29-1.35-3.69-3.81-3.69-6.47 0-.01 0-.03 0-.03.01-2.68 1.44-5.13 3.76-6.47l80.01-46.07 3.19 13.89-64.48 38.18 64.34 38.18z"/>
      <path d="m309.77 158.07 80.02-47.1c2.29-1.35 3.69-3.81 3.69-6.47 0-.01 0-.03 0-.03-.01-2.68-1.44-5.13-3.76-6.47l-80.01-46.07-3.19 13.89 64.48 38.18-64.34 38.18z"/>
    </g>
    <text x="68" y="22" font-size="24" font-weight="800" fill="#ffffff" letter-spacing="4">DINGHY</text>
  </g>

  <text x="80" y="220" font-size="17" font-weight="700" fill="#00d4ff" letter-spacing="4">BLOG SERIES · 03 / 07</text>

  <text x="80" y="320" font-size="80" font-weight="800" fill="#ffffff"><tspan fill="#f08705">Diagram</tspan></text>
  <text x="80" y="410" font-size="80" font-weight="800" fill="#ffffff">as Code</text>

  <text x="80" y="475" font-size="26" font-weight="400" fill="#a9b1d6">Architecture diagrams as TSX components</text>

  <!-- right-side accent: nested architecture diagram preview -->
  <g transform="translate(800,200)">
    <rect x="0" y="0" width="320" height="240" rx="14" fill="none" stroke="#a9b1d6" stroke-width="2"/>
    <text x="14" y="24" font-size="14" font-weight="700" fill="#a9b1d6">Cloud</text>

    <rect x="20" y="40" width="135" height="180" rx="10" fill="none" stroke="#00d4ff" stroke-width="2"/>
    <text x="32" y="60" font-size="12" fill="#00d4ff">Public</text>
    <rect x="36" y="74" width="100" height="36" rx="6" fill="#00d4ff" opacity="0.18"/>
    <text x="86" y="97" font-size="13" font-weight="600" fill="#ffffff" text-anchor="middle">Load Balancer</text>
    <rect x="36" y="124" width="100" height="36" rx="6" fill="#00d4ff" opacity="0.18"/>
    <text x="86" y="147" font-size="13" font-weight="600" fill="#ffffff" text-anchor="middle">Firewall</text>

    <rect x="170" y="40" width="135" height="180" rx="10" fill="none" stroke="#e60073" stroke-width="2"/>
    <text x="182" y="60" font-size="12" fill="#e60073">Private</text>
    <rect x="186" y="74" width="100" height="36" rx="6" fill="#e60073" opacity="0.18"/>
    <text x="236" y="97" font-size="13" font-weight="600" fill="#ffffff" text-anchor="middle">App</text>
    <rect x="186" y="124" width="100" height="36" rx="6" fill="#e60073" opacity="0.18"/>
    <text x="236" y="147" font-size="13" font-weight="600" fill="#ffffff" text-anchor="middle">Postgres</text>

    <line x1="136" y1="92" x2="186" y2="92" stroke="#a9b1d6" stroke-width="2" marker-end="url(#arrow)" opacity="0.7"/>
  </g>

  <rect x="80" y="555" width="160" height="3" fill="url(#accent)"/>
  <text x="80" y="588" font-size="18" font-weight="500" fill="#7aa3d6" letter-spacing="2">dinghy.dev</text>
</svg>
