<svg xmlns="http://www.w3.org/2000/svg" width="1200" height="630" viewBox="0 0 1200 630" font-family="Helvetica Neue,Helvetica,Arial,STIX Two Text,sans-serif">
  <defs>
    <linearGradient id="bg" x1="0" y1="0" x2="1" y2="1">
      <stop offset="0%" stop-color="#0b1426"/>
      <stop offset="100%" stop-color="#1a2a4a"/>
    </linearGradient>
    <linearGradient id="accent" x1="0" y1="0" x2="1" y2="0">
      <stop offset="0%" stop-color="#00d4ff"/>
      <stop offset="100%" stop-color="#e60073"/>
    </linearGradient>
    <radialGradient id="glow" cx="0.5" cy="0.5" r="0.5">
      <stop offset="0%" stop-color="#7c3aed" stop-opacity="0.45"/>
      <stop offset="100%" stop-color="#7c3aed" stop-opacity="0"/>
    </radialGradient>
  </defs>

  <rect width="1200" height="630" fill="url(#bg)"/>
  <circle cx="970" cy="315" r="240" fill="url(#glow)"/>

  <!-- brand -->
  <g transform="translate(80,95)">
    <g transform="scale(0.13)" fill="#ffffff">
      <path d="m329.31,89.74c-0.57,0 -1.14,0.07 -1.68,0.19l-74.07,14.39l-47.11,-80.02c-1.35,-2.29 -3.81,-3.69 -6.47,-3.69c-0.01,0 -0.02,0 -0.03,0c-2.67,0.01 -5.13,1.44 -6.47,3.76l-46.07,80.01l-75.1,-14.45c-2.43,-0.55 -5.09,0.13 -6.98,2.03c-1.27,1.28 -1.98,2.9 -2.14,4.57c-0.13,1.25 0.07,2.48 0.53,3.59c0.17,0.4 0.38,0.8 0.62,1.18c0.33,0.52 0.73,0.99 1.18,1.42l74.97,74.49c1.4,1.4 3.3,2.18 5.28,2.18l109.64,0c1.99,0 3.9,-0.79 5.31,-2.2l73.9,-73.9c1.4,-1.4 2.19,-3.31 2.19,-5.3l0,-0.75c0,-4.14 -3.35,-7.5 -7.5,-7.5zm-129.25,-46.73l37.88,64.34l-37.35,7.26l-37.6,-7.23l37.07,-64.37zm0.53,89.36l35.37,32.02l-70.73,0l35.36,-32.02zm-107.21,-23.11l91.04,17.51l-38.41,34.79l-52.63,-52.3zm161.78,52.28l-38.42,-34.79l90.85,-17.64l-52.43,52.43z"/>
      <path d="m90.23 158.07-80.02-47.1c-2.29-1.35-3.69-3.81-3.69-6.47 0-.01 0-.03 0-.03.01-2.68 1.44-5.13 3.76-6.47l80.01-46.07 3.19 13.89-64.48 38.18 64.34 38.18z"/>
      <path d="m309.77 158.07 80.02-47.1c2.29-1.35 3.69-3.81 3.69-6.47 0-.01 0-.03 0-.03-.01-2.68-1.44-5.13-3.76-6.47l-80.01-46.07-3.19 13.89 64.48 38.18-64.34 38.18z"/>
    </g>
    <text x="68" y="22" font-size="24" font-weight="800" fill="#ffffff" letter-spacing="4">DINGHY</text>
  </g>

  <text x="80" y="220" font-size="17" font-weight="700" fill="#00d4ff" letter-spacing="4">BLOG SERIES · 04 / 07</text>

  <text x="80" y="320" font-size="80" font-weight="800" fill="#ffffff"><tspan fill="#a78bfa">Infrastructure</tspan></text>
  <text x="80" y="410" font-size="80" font-weight="800" fill="#ffffff">as Code</text>

  <text x="80" y="475" font-size="26" font-weight="400" fill="#a9b1d6">8 lines of TSX → 248 lines of Terraform</text>

  <!-- right-side accent: dramatic 8 → 248 stat -->
  <g transform="translate(800,200)">
    <text x="40" y="100" font-size="120" font-weight="800" fill="#00d4ff" text-anchor="middle">8</text>
    <text x="40" y="135" font-size="14" font-weight="600" fill="#a9b1d6" text-anchor="middle" letter-spacing="2">SOURCE LINES</text>

    <text x="170" y="120" font-size="60" fill="#ffffff">→</text>

    <text x="320" y="100" font-size="120" font-weight="800" fill="#e60073" text-anchor="middle">248</text>
    <text x="320" y="135" font-size="14" font-weight="600" fill="#a9b1d6" text-anchor="middle" letter-spacing="2">TERRAFORM LINES</text>

    <line x1="40" y1="170" x2="320" y2="170" stroke="#a78bfa" stroke-width="3" stroke-linecap="round" opacity="0.7"/>
    <text x="180" y="200" font-size="16" fill="#a78bfa" text-anchor="middle">31× expansion ratio</text>
  </g>

  <rect x="80" y="530" width="160" height="3" fill="url(#accent)"/>
  <text x="80" y="560" font-size="18" font-weight="500" fill="#7aa3d6" letter-spacing="2">dinghy.dev</text>
</svg>
